HIERARCHY
ROOT Hips
{
    OFFSET 0.000000 0.000000 0.000000
    CHANNELS 6 Xposition Yposition Zposition Zrotation Xrotation Yrotation
    JOINT Spine
    {
        OFFSET -0.000000 8.226649 0.000000
        CHANNELS 3 Zrotation Xrotation Yrotation
        JOINT Spine1
        {
            OFFSET -0.000000 24.451035 0.000000
            CHANNELS 3 Zrotation Xrotation Yrotation
            JOINT Neck
            {
                OFFSET -0.000000 24.350622 2.213693
                CHANNELS 3 Zrotation Xrotation Yrotation
                JOINT Head
                {
                    OFFSET -0.000000 14.045498 -2.006500
                    CHANNELS 3 Zrotation Xrotation Yrotation
                    End Site
                    {
                        OFFSET -0.000000 25.081247 0.000000
                    }
                }
            }
            JOINT LeftShoulder
            {
                OFFSET 4.059404 22.255779 -0.272799
                CHANNELS 3 Zrotation Xrotation Yrotation
                JOINT LeftArm
                {
                    OFFSET 12.029813 0.000000 0.000000
                    CHANNELS 3 Zrotation Xrotation Yrotation
                    JOINT LeftForeArm
                    {
                        OFFSET 31.268898 0.000000 0.000000
                        CHANNELS 3 Zrotation Xrotation Yrotation
                        JOINT LeftHand
                        {
                            OFFSET 28.027487 0.000000 0.000000
                            CHANNELS 3 Zrotation Xrotation Yrotation
                            End Site
                            {
                                OFFSET 15.048748 0.000000 0.000000
                            }
                        }
                    }
                }
            }
            JOINT RightShoulder
            {
                OFFSET -3.964640 22.255779 -0.272799
                CHANNELS 3 Zrotation Xrotation Yrotation
                JOINT RightArm
                {
                    OFFSET -12.029813 0.000000 0.000000
                    CHANNELS 3 Zrotation Xrotation Yrotation
                    JOINT RightForeArm
                    {
                        OFFSET -31.268898 0.000000 0.000000
                        CHANNELS 3 Zrotation Xrotation Yrotation
                        JOINT RightHand
                        {
                            OFFSET -28.027487 0.000000 0.000000
                            CHANNELS 3 Zrotation Xrotation Yrotation
                            End Site
                            {
                                OFFSET -15.048748 0.000000 0.000000
                            }
                        }
                    }
                }
            }
        }
    }
    JOINT LeftUpLeg
    {
        OFFSET 10.032499 0.000000 0.000000
        CHANNELS 3 Zrotation Xrotation Yrotation
        JOINT LeftLeg
        {
            OFFSET -0.000000 -38.403259 0.000000
            CHANNELS 3 Zrotation Xrotation Yrotation
            JOINT LeftFoot
            {
                OFFSET -0.000000 -44.164154 0.000000
                CHANNELS 3 Zrotation Xrotation Yrotation
                JOINT LeftToeBase
                {
                    OFFSET -0.000000 -6.521124 15.048748
                    CHANNELS 3 Zrotation Xrotation Yrotation
                    End Site
                    {
                        OFFSET -0.000000 0.000000 4.013000
                    }
                }
            }
        }
    }
    JOINT RightUpLeg
    {
        OFFSET -10.032499 0.000000 0.000000
        CHANNELS 3 Zrotation Xrotation Yrotation
        JOINT RightLeg
        {
            OFFSET -0.000000 -38.403259 0.000000
            CHANNELS 3 Zrotation Xrotation Yrotation
            JOINT RightFoot
            {
                OFFSET -0.000000 -44.164154 0.000000
                CHANNELS 3 Zrotation Xrotation Yrotation
                JOINT RightToeBase
                {
                    OFFSET -0.000000 -6.521124 15.048748
                    CHANNELS 3 Zrotation Xrotation Yrotation
                    End Site
                    {
                        OFFSET -0.000000 0.000000 4.013000
                    }
                }
            }
        }
    }
}
MOTION
Frames:    10
Frame Time:    0.004000
-23.787432    84.975258    -137.231308    1.173269    -2.191558    -1.412023    1.298233    -5.170310    4.512076    -4.199612    9.511098    4.802915    4.088944    16.246044    8.004718    -6.565999    7.139163    7.808425    1.841372    10.879285    -2.271913    -68.857918    32.883530    -10.720167    1.816274    0.313750    -10.924249    8.161946    0.480969    -0.092236    -2.862520    14.567053    4.340580    45.517788    45.638897    25.226328    -6.622775    -7.331587    18.694090    -0.588805    -6.243547    -0.831800    3.053139    -23.876307    1.216305    -3.179555    5.564982    3.569459    -8.403786    -2.926797    14.314076    0.000000    0.000000    0.000000    1.401728    12.488538    9.383699    0.723397    15.464303    4.414187    -4.312784    -19.998806    -12.599374    0.000000    0.000000    0.000000    
-23.738588    84.917992    -136.801025    1.120150    -2.113574    -1.553065    1.358505    -5.248789    4.544820    -4.260559    9.501385    4.836726    4.073075    16.270651    8.037580    -6.566525    7.038879    7.837806    1.842900    10.817415    -2.280866    -68.929138    32.781670    -10.660182    1.679632    0.437385    -10.744125    7.997215    0.574770    -0.293439    -2.866270    14.554696    4.341548    45.548077    45.678089    25.254154    -6.508095    -7.295180    18.655281    -0.854065    -6.226067    -0.853288    3.108157    -23.830130    0.922901    -3.101196    5.061400    3.792844    -8.887525    -2.927752    14.362680    0.000000    0.000000    0.000000    1.383278    12.658449    9.645555    0.795561    15.485170    4.124352    -4.184546    -19.999353    -12.500514    0.000000    0.000000    0.000000    
-23.695295    84.867294    -136.364731    1.065003    -2.059349    -1.686581    1.407054    -5.315399    4.575234    -4.295869    9.506178    4.867211    4.035214    16.222561    8.069776    -6.544663    7.049962    7.871948    1.773330    10.831228    -2.232182    -68.871292    32.925438    -10.705751    1.683015    0.409027    -10.599490    7.819024    0.546542    -0.273019    -2.926767    14.438469    4.398447    45.773388    45.834358    25.090012    -6.557920    -7.286594    18.591238    -0.707452    -6.214089    -0.857002    3.169183    -23.763924    0.690533    -3.047956    4.624592    4.143471    -8.875376    -2.963242    14.242811    0.000000    0.000000    0.000000    1.401849    12.811406    9.416261    0.683590    15.594757    4.215362    -3.969869    -19.992411    -12.251813    0.000000    0.000000    0.000000    
-23.649178    84.814156    -135.929962    1.016841    -1.999842    -1.825828    1.419999    -5.359424    4.595883    -4.284584    9.474252    4.884568    3.999840    16.246401    8.110191    -6.581867    6.945714    7.905993    1.694897    10.803580    -2.194700    -68.871574    32.967583    -10.693435    1.640478    0.458004    -10.416431    7.710070    0.581411    -0.387231    -2.904330    14.531387    4.384664    45.667316    45.843212    25.195408    -6.511489    -7.253614    18.566286    -0.838827    -6.189416    -0.812540    3.250383    -23.714228    0.383611    -3.051703    4.232186    4.583878    -8.879424    -2.961860    14.085311    0.000000    0.000000    0.000000    1.420762    12.974384    9.390826    0.591651    15.634802    3.750041    -3.477089    -19.955153    -11.588655    0.000000    0.000000    0.000000    
-23.601742    84.765160    -135.476379    0.968969    -1.959538    -1.972236    1.512884    -5.416846    4.644687    -4.435753    9.470752    4.940666    4.092990    16.300350    8.126131    -6.657429    6.819087    7.911101    1.784963    10.819961    -2.209418    -68.905289    32.997913    -10.743975    1.562874    0.603903    -10.197603    7.653658    0.705849    -0.560767    -2.904397    14.481670    4.448436    45.888706    45.876793    25.055941    -6.464469    -7.205723    18.517721    -0.873317    -6.150307    -0.988554    3.319013    -23.627506    0.199318    -3.039183    3.889834    4.874469    -8.884485    -2.930372    14.053781    0.000000    0.000000    0.000000    1.378892    13.174017    9.514177    0.619817    15.687549    3.604073    -3.080702    -19.900703    -11.402946    0.000000    0.000000    0.000000    
-23.558088    84.720734    -135.043030    0.906129    -1.897811    -2.127503    1.574774    -5.465807    4.686920    -4.482644    9.440420    4.981991    4.046179    16.311022    8.158418    -6.618794    6.749834    7.944345    1.753801    10.815631    -2.200323    -68.878922    33.036186    -10.779518    1.454242    0.668514    -10.014509    7.801390    0.757818    -0.558383    -2.814578    14.766411    4.345127    45.504570    45.833241    25.473820    -6.414783    -7.201218    18.424038    -0.954226    -6.158497    -0.993885    3.438420    -23.610535    -0.049334    -3.086010    3.688311    5.213123    -9.194065    -2.935045    14.144891    0.000000    0.000000    0.000000    1.380587    13.278542    9.406254    0.546473    15.853079    3.704644    -2.743485    -19.845308    -11.213625    0.000000    0.000000    0.000000    
-23.512423    84.676727    -134.604172    0.861127    -1.839721    -2.259597    1.600346    -5.518706    4.718414    -4.504293    9.425612    5.012733    4.012129    16.272411    8.189795    -6.596868    6.743513    7.977054    1.716631    10.783886    -2.188158    -68.893494    33.081165    -10.767081    1.404841    0.730482    -9.834705    7.732805    0.815343    -0.532504    -2.810150    14.728190    4.313583    45.576782    45.887810    25.445173    -6.320499    -7.137508    18.388676    -1.095771    -6.111174    -0.942334    3.520281    -23.601450    -0.207904    -3.139268    3.561260    5.524423    -9.012313    -2.953114    14.172238    0.000000    0.000000    0.000000    1.367859    13.384101    9.199275    0.435408    16.044872    3.946037    -2.424859    -19.818933    -11.043039    0.000000    0.000000    0.000000    
-23.463985    84.632286    -134.160538    0.816061    -1.782768    -2.404101    1.621349    -5.578859    4.767071    -4.501054    9.430817    5.059466    4.009986    16.286589    8.200313    -6.668893    6.639957    7.976485    1.619674    10.724436    -2.228617    -68.871117    33.111580    -10.726242    1.372751    0.791145    -9.679845    7.675756    0.872545    -0.518989    -2.796160    14.771491    4.285051    45.594738    45.895988    25.458035    -6.309716    -7.080454    18.316452    -1.027130    -6.060778    -0.897409    3.586740    -23.609461    -0.375698    -3.136320    3.521765    5.732102    -9.301931    -2.941424    14.171277    0.000000    0.000000    0.000000    1.320055    13.490218    9.239594    0.433447    16.223877    3.977636    -2.094485    -19.760227    -10.900156    0.000000    0.000000    0.000000    
-23.410088    84.591728    -133.713745    0.776304    -1.735342    -2.551301    1.644685    -5.622916    4.798756    -4.520308    9.414406    5.090310    4.002168    16.325262    8.220957    -6.714603    6.510931    7.988028    1.603084    10.674024    -2.177989    -68.911606    33.169994    -10.721247    1.225882    0.793190    -9.484972    7.941246    0.860301    -0.497957    -2.817019    14.724405    4.269773    45.686668    46.000179    25.426987    -6.270817    -7.029755    18.228048    -1.043961    -6.021094    -0.892292    3.651742    -23.618967    -0.488783    -3.184725    3.567036    5.941028    -9.402973    -2.959282    14.244855    0.000000    0.000000    0.000000    1.273311    13.590077    9.129089    0.364087    16.413975    3.914007    -1.615866    -19.672806    -10.463928    0.000000    0.000000    0.000000    
-23.352009    84.551849    -133.266541    0.750812    -1.678544    -2.710639    1.689181    -5.665895    4.836123    -4.614274    9.382730    5.131308    4.028145    16.270636    8.256063    -6.732489    6.553409    8.023550    1.540814    10.741442    -2.130507    -68.793983    33.196495    -10.838099    1.197773    0.854142    -9.322706    7.849960    0.925132    -0.388279    -2.776028    14.779173    4.322405    45.718307    46.020550    25.401737    -6.225438    -6.964021    18.200983    -1.180654    -5.961138    -1.068327    3.688452    -23.623268    -0.593169    -3.199664    3.607894    6.249990    -9.313720    -2.937108    14.231643    0.000000    0.000000    0.000000    1.201849    13.672577    9.035941    0.297919    16.633343    4.009676    -1.229177    -19.603064    -10.214944    0.000000    0.000000    0.000000    
